HIERARCHY
ROOT Hips
{
	OFFSET 0.00000 0.00000 0.00000
	CHANNELS 6 Xposition Yposition Zposition Zrotation Yrotation Xrotation 
	JOINT LHipJoint
	{
		OFFSET 0 0 0
		CHANNELS 3 Zrotation Yrotation Xrotation
		JOINT LeftHip
		{
			OFFSET 1.44361 -1.63093 0.70831
			CHANNELS 3 Zrotation Yrotation Xrotation
			JOINT LeftKnee
			{
				OFFSET 2.20103 -6.04728 0.00000
				CHANNELS 3 Zrotation Yrotation Xrotation
				JOINT LeftAnkle
				{
					OFFSET 2.54154 -6.98283 0.00000
					CHANNELS 3 Zrotation Yrotation Xrotation
					JOINT LeftToe
					{
						OFFSET 0.05971 -0.16406 1.77582
						CHANNELS 3 Zrotation Yrotation Xrotation
						End Site
						{
							OFFSET 0.00000 -0.00000 0.90832
						}
					}
				}
			}
		}
	}
	JOINT RHipJoint
	{
		OFFSET 0 0 0
		CHANNELS 3 Zrotation Yrotation Xrotation
		JOINT RightHip
		{
			OFFSET -1.65838 -1.63093 0.70830
			CHANNELS 3 Zrotation Yrotation Xrotation
			JOINT RightKnee
			{
				OFFSET -2.26926 -6.23475 0.00000
				CHANNELS 3 Zrotation Yrotation Xrotation
				JOINT RightAnkle
				{
					OFFSET -2.34808 -6.45129 0.00000
					CHANNELS 3 Zrotation Yrotation Xrotation
					JOINT RightToe
					{
						OFFSET -0.18633 -0.51195 1.68539
						CHANNELS 3 Zrotation Yrotation Xrotation
						End Site
						{
							OFFSET -0.00000 -0.00000 0.88927
						}
					}
				}
			}
		}
	}
	JOINT lowerback
	{
		OFFSET 0 0 0
		CHANNELS 3 Zrotation Yrotation Xrotation
		JOINT Chest
		{
			OFFSET -0.10393 2.01691 0.06920
			CHANNELS 3 Zrotation Yrotation Xrotation
			JOINT Chest2
			{
				OFFSET 0.04092 2.01302 -0.05283
				CHANNELS 3 Zrotation Yrotation Xrotation
				JOINT lowerneck
				{
					OFFSET 0 0 0
					CHANNELS 3 Zrotation Yrotation Xrotation
					JOINT Neck
					{
						OFFSET -0.02870 1.58978 -0.03113
						CHANNELS 3 Zrotation Yrotation Xrotation
						JOINT Head
						{
							OFFSET 0.11532 1.54326 -0.29195
							CHANNELS 3 Zrotation Yrotation Xrotation
							End Site
							{
								OFFSET 0.04056 1.59999 -0.09535
							}
						}
					}
				}
				JOINT LeftCollar
				{
					OFFSET 0 0 0
					CHANNELS 3 Zrotation Yrotation Xrotation
					JOINT LeftShoulder
					{
						OFFSET 3.30641 1.15764 0.01104
CHANNELS 3 Zrotation Xrotation Yrotation
						JOINT LeftElbow
						{
OFFSET 0 -4.632080 0.000000
CHANNELS 3 Zrotation Xrotation Yrotation
							JOINT LeftWrist
							{
OFFSET 0 -3.419240 -0.000000
CHANNELS 3 Zrotation Xrotation Yrotation
								JOINT lhand
								{
									OFFSET 0 0 0
CHANNELS 3 Zrotation Xrotation Yrotation
									JOINT LFingers
									{
OFFSET 0 -0.625370 -0.000000
CHANNELS 3 Zrotation Xrotation Yrotation
										End Site
										{
OFFSET 0 -0.504190 -0.000000
										}
									}
								}
								JOINT LThumb
								{
OFFSET 0 0.000000 0.000000
CHANNELS 3 Zrotation Xrotation Yrotation
									End Site
									{
OFFSET 0 -0.511890 0.511890
									}
								}
							}
						}
					}
				}
				JOINT RightCollar
				{
					OFFSET 0 0 0
					CHANNELS 3 Zrotation Yrotation Xrotation
					JOINT RightShoulder
					{
						OFFSET -3.78081 1.02180 -0.16609
CHANNELS 3 Zrotation Xrotation Yrotation
						JOINT RightElbow
						{
OFFSET 0 -4.406400 -0.000000
CHANNELS 3 Zrotation Xrotation Yrotation
							JOINT RightWrist
							{
OFFSET 0 -3.446750 0.000000
CHANNELS 3 Zrotation Xrotation Yrotation
								JOINT rhand
								{
									OFFSET 0 0 0
CHANNELS 3 Zrotation Xrotation Yrotation
									JOINT RFingers
									{
OFFSET 0 -0.513670 -0.000000
CHANNELS 3 Zrotation Xrotation Yrotation
										End Site
										{
OFFSET 0 -0.414140 -0.000000
										}
									}
								}
								JOINT RThumb
								{
OFFSET 0 0.000000 0.000000
CHANNELS 3 Zrotation Xrotation Yrotation
									End Site
									{
OFFSET 0 -0.420460 0.420460
									}
								}
							}
						}
					}
				}
			}
		}
	}
}
MOTION
Frames: 15
Frame Time: .0083333
8.8493 16.3238 7.0162 184.1970 17.2753 -162.7500 0.0000 0.0000 0.0000 -12.2626 -11.0409 -32.3142 3.1969 11.0072 32.3042 0.6249 4.4196 -17.1934 9.3158 -17.0067 -57.1759 0.0000 0.0000 0.0000 11.1027 7.7793 -2.5525 -19.5765 -19.9957 88.7617 -15.0866 36.2744 81.9490 -1.4719 -7.6665 21.7055 -6.3217 6.5987 -8.0500 0.2546 9.3870 0.2797 4.7199 4.5409 3.7195 -4.2128 -1.2911 -6.7362 6.7796 -4.8962 25.0779 2.4486 -2.7319 9.2067 -0.0000 -0.0000 0.0000 13.0923 14.8519 -25.0709 12.5566 -20.634 2.2946 33.486 4.5233 19.6162 0.0 0.0 0.0 -7.1250 0.0 0.0 3.2641 6.8726 2.8548 -0.0000 -0.0000 0.0000 -9.6516 -7.3351 31.4088 -24.2594 -35.4373 -7.8564 -17.9108 16.8141 41.0578 0.0 0.0 0.0 7.1250 0.0 -0.0 27.9856 70.6547 -17.575
8.7952 16.3324 6.8451 183.8640 16.5190 -162.7760 0.0000 0.0000 0.0000 -13.3428 -11.8610 -31.3187 3.1382 10.9154 31.9951 0.7283 3.8896 -17.9932 9.0139 -16.8167 -56.1383 0.0000 0.0000 0.0000 10.8645 8.5601 -3.2050 -18.5955 -19.9526 85.8903 -40.9339 48.6871 115.7949 -1.7015 -8.2146 23.3678 -6.1540 6.4621 -8.3890 0.4811 9.2116 0.5618 4.9218 4.4248 4.2140 -4.1055 -1.4396 -6.8972 6.2622 -5.0896 25.5870 2.2293 -2.8717 9.4146 0.0000 -0.0000 0.0000 13.668 15.4212 -26.6538 13.3016 -21.7275 2.5639 33.7476 4.1862 19.5004 0.0 0.0 0.0 -7.1250 0.0 0.0 3.4470 6.9458 3.0105 0.0000 -0.0000 0.0000 -10.3441 -6.4044 30.076 -23.9524 -35.1139 -7.6792 -17.9673 17.5058 41.043 0.0 0.0 0.0 7.1250 0.0 -0.0 27.8937 70.6611 -17.5183
8.7482 16.3356 6.6844 183.4180 15.9493 -163.0130 0.0000 0.0000 0.0000 -14.5737 -12.0653 -30.3972 3.0991 10.8537 31.7881 0.7992 3.4141 -18.4592 8.6906 -16.6044 -55.0138 0.0000 0.0000 0.0000 10.8219 9.8973 -3.6083 -16.7988 -19.7525 80.6032 -51.3722 49.0340 159.2138 -1.6981 -8.2066 23.3435 -6.4411 6.2685 -8.5291 0.8884 8.9829 0.8073 5.5165 4.2829 4.4699 -4.1024 -1.5138 -7.0874 5.7834 -5.1973 26.2040 2.0468 -2.9861 9.6650 -0.0000 -0.0000 0.0000 14.1633 16.3784 -28.5083 14.3729 -23.2653 2.9738 33.8734 2.4799 19.4547 0.0 0.0 0.0 -7.1250 0.0 0.0 3.5336 6.9696 3.0847 -0.0000 -0.0000 0.0000 -11.1561 -5.1577 28.1238 -23.6796 -34.8236 -7.5228 -17.7563 16.6491 38.5922 0.0 0.0 0.0 7.1250 0.0 -0.0 24.3245 68.4923 -14.0222
8.7109 16.3377 6.5396 183.0100 15.3282 -163.4250 0.0000 0.0000 0.0000 -15.7063 -11.5747 -29.9072 3.1295 10.9018 31.9494 0.8322 2.8078 -18.4682 8.3678 -16.3832 -53.8769 0.0000 0.0000 0.0000 10.9595 11.1882 -4.0535 -15.2198 -19.4431 75.8979 -42.1230 34.5203 -166.7101 -1.5347 -7.8210 22.1718 -6.9538 6.0082 -8.3924 1.4993 8.6630 1.0302 6.4013 4.1010 4.5028 -4.3867 -1.5826 -7.0864 5.4539 -5.2813 26.6750 1.9688 -3.1096 9.8370 -0.0000 0.0000 0.0000 14.6002 17.2672 -30.1998 15.5148 -24.8583 3.4394 33.7093 0.4092 19.5777 0.0 0.0 0.0 -7.1250 0.0 0.0 3.4107 6.8659 2.9839 -0.0000 0.0000 0.0000 -12.0067 -3.5117 25.6289 -23.5582 -34.6936 -7.4536 -15.6196 15.537 42.0369 0.0 0.0 0.0 7.1250 0.0 -0.0 32.3753 70.6861 -20.5269
8.6733 16.3391 6.4031 182.6450 14.2692 -163.8430 0.0000 0.0000 0.0000 -16.8867 -10.8330 -29.6806 3.1751 10.9732 32.1895 0.8387 2.1061 -18.1831 8.1096 -16.1993 -52.9567 0.0000 0.0000 0.0000 11.1188 12.3245 -5.2623 -14.1084 -19.1466 72.5352 -41.6385 33.3136 -165.1596 -0.9441 -6.1885 17.3322 -7.0279 5.6353 -8.0874 1.9665 8.1424 1.1921 6.8651 3.8356 4.5042 -4.6107 -1.6794 -6.9124 5.2570 -5.4197 26.8913 1.9235 -3.2382 9.8901 -0.0000 -0.0000 0.0000 15.5203 18.0233 -31.7946 16.8106 -26.6074 4.0021 32.5317 -0.9681 19.364 0.0 0.0 0.0 -7.1250 0.0 0.0 2.6998 7.3715 2.3338 -0.0000 -0.0000 0.0000 -12.3965 -1.5216 22.596 -23.4582 -34.5861 -7.3968 -15.1452 14.2398 42.8537 0.0 0.0 0.0 7.1250 0.0 -0.0 34.4781 71.1635 -22.3075
8.6339 16.3408 6.2710 182.0770 12.8826 -164.3190 0.0000 0.0000 0.0000 -18.4622 -10.1343 -29.2473 3.1685 10.9630 32.1553 0.8483 1.3171 -17.9239 7.8508 -16.0084 -52.0233 0.0000 0.0000 0.0000 11.1378 13.1283 -6.4006 -13.3548 -18.9066 70.2240 -41.2070 33.3578 -162.5991 -0.5222 -4.6314 12.8602 -7.0052 5.0741 -7.7881 2.3050 7.3666 1.3985 7.1322 3.4371 4.6384 -4.3684 -1.6871 -7.2638 4.5807 -5.3690 27.4045 1.6399 -3.2707 10.1178 0.0000 0.0000 0.0000 16.6715 18.5472 -33.0308 18.1609 -28.3627 4.6254 32.9338 -3.2789 20.1465 0.0 0.0 0.0 -7.1250 0.0 0.0 2.8340 6.3933 2.5039 0.0000 0.0000 0.0000 -12.5067 0.5262 19.3497 -23.2093 -34.3169 -7.2559 -16.858 13.6715 41.0193 0.0 0.0 0.0 7.1250 0.0 -0.0 29.1425 70.2741 -18.1004
8.5907 16.3431 6.1421 181.3990 11.3973 -164.8430 0.0000 0.0000 0.0000 -20.2369 -9.6743 -28.3510 3.0951 10.8475 31.7672 0.8861 0.2762 -17.8953 7.2256 -15.5189 -49.7224 0.0000 0.0000 0.0000 11.1452 14.2156 -7.6797 -12.7341 -18.6841 68.2977 -41.3065 32.8619 -163.6617 -0.5345 -4.6844 13.0107 -6.9560 4.4220 -7.4246 2.5953 6.4634 1.5824 7.3183 2.9780 4.7514 -4.2115 -1.6506 -7.1991 4.0301 -5.2451 27.5513 1.4311 -3.2700 10.1334 0.0000 -0.0000 0.0000 17.9064 18.7156 -33.8518 19.3326 -29.8299 5.1953 31.9918 -3.524 19.5683 0.0 0.0 0.0 -7.1250 0.0 0.0 2.3276 7.2562 2.0167 0.0000 -0.0000 0.0000 -12.449 2.6565 15.7385 -22.7848 -33.8526 -7.018 -19.2886 14.9134 42.2632 0.0 0.0 0.0 7.1250 0.0 -0.0 28.5714 72.121 -18.8601
8.5397 16.3407 6.0141 180.8550 9.8763 -165.3880 0.0000 0.0000 0.0000 -21.8255 -9.4227 -26.9872 2.9408 10.5987 30.9380 0.9142 -0.9056 -17.7885 6.2387 -14.6558 -45.9324 0.0000 0.0000 0.0000 11.0570 15.1649 -9.3050 -12.4778 -18.5854 67.4953 -40.9491 32.0926 -162.3348 -0.1404 -2.4146 6.6530 -6.5261 3.8108 -6.8701 2.8165 5.5701 1.6524 7.1938 2.5492 4.6816 -4.1202 -1.6186 -6.8976 3.6799 -5.2044 27.6494 1.2984 -3.3060 10.0968 -0.0000 -0.0000 0.0000 19.3868 18.6289 -34.5904 20.3773 -31.0943 5.7249 32.7025 -4.721 20.1841 0.0 0.0 0.0 -7.1250 0.0 0.0 2.6830 6.4029 2.3697 -0.0000 -0.0000 0.0000 -12.0821 4.9262 11.3564 -22.2607 -33.2705 -6.7283 -21.1451 16.3368 41.6673 0.0 0.0 0.0 7.1250 0.0 -0.0 25.1690 72.2693 -16.607
8.4872 16.3313 5.8965 180.3620 8.4656 -165.9090 0.0000 0.0000 0.0000 -23.1255 -9.3587 -25.6458 2.8056 10.3736 30.1952 0.9454 -2.5625 -17.6913 4.5469 -12.8546 -38.8266 0.0000 0.0000 0.0000 10.5958 16.2694 -11.9674 -12.4260 -18.5650 67.3329 -40.9160 32.5136 -161.7605 -0.0549 -1.5120 4.1588 -6.1483 3.1786 -6.3458 3.1109 4.6611 1.7167 7.1835 2.1114 4.6091 -3.9472 -1.5594 -6.9255 3.0874 -5.1087 28.0817 1.0619 -3.3390 10.2367 0.0000 -0.0000 0.0000 20.6025 18.2394 -34.8905 21.2771 -32.1504 6.1967 32.8887 -4.7649 19.7149 0.0 0.0 0.0 -7.1250 0.0 0.0 2.8724 6.8941 2.51 0.0000 -0.0000 0.0000 -11.734 7.0331 6.3959 -21.4705 -32.3734 -6.3 -22.4338 18.5852 40.7446 0.0 0.0 0.0 7.1250 0.0 -0.0 21.8975 71.9154 -14.2181
8.4449 16.3174 5.7965 179.7490 7.3987 -166.3940 0.0000 0.0000 0.0000 -24.2108 -9.4039 -24.5363 2.7371 10.2568 29.8124 0.9046 -2.8591 -17.2375 5.2789 -13.6912 -42.0141 0.0000 0.0000 0.0000 9.7680 17.8455 -14.9572 -12.6434 -18.6496 68.0141 -40.6618 30.3648 -162.2132 -0.0337 1.1848 -3.2573 -6.1872 2.4879 -5.9142 3.4076 3.7149 1.8229 7.4257 1.6365 4.6125 -3.8665 -1.4031 -6.8737 2.5788 -4.8619 28.3742 0.8893 -3.3028 10.3090 -0.0000 0.0000 0.0000 21.5268 17.5385 -34.6279 21.9830 -32.9578 6.5766 33.2789 -5.2167 19.3653 0.0 0.0 0.0 -7.1250 0.0 0.0 3.1724 7.206 2.7537 -0.0000 0.0000 0.0000 -11.4297 8.9249 1.7474 -20.5142 -31.2569 -5.7958 -23.0908 21.4738 42.5182 0.0 0.0 0.0 7.1250 0.0 -0.0 24.3432 73.6831 -16.7752
8.4140 16.3041 5.7114 178.9280 6.7013 -167.0990 0.0000 0.0000 0.0000 -25.2896 -9.2880 -23.3225 2.6823 10.1620 29.5031 0.8789 -4.0389 -16.8177 5.3461 -13.7632 -42.2971 0.0000 0.0000 0.0000 8.3111 19.0107 -19.0818 -13.1257 -18.8271 69.5154 -40.1949 26.4832 -162.5197 -1.0790 6.6025 -18.5430 -6.6085 1.8385 -5.2983 3.6048 2.8433 2.0640 7.7885 1.1805 4.6403 -3.4639 -4.3513 -6.6691 1.1205 -3.3563 28.5639 0.7999 -0.8847 10.2823 0.0000 -0.0000 0.0000 22.5213 16.4587 -34.4296 22.6318 -33.6837 6.933 33.7992 -6.6558 19.0224 0.0 0.0 0.0 -7.1250 0.0 0.0 3.5546 7.4829 3.0675 0.0000 -0.0000 0.0000 -11.1107 10.674 -2.4289 -19.5911 -30.1465 -5.3244 -23.0457 22.7899 45.0877 0.0 0.0 0.0 7.1250 0.0 -0.0 30.4482 75.7549 -22.4525
8.3864 16.2926 5.6383 177.9200 6.2059 -168.1840 0.0000 0.0000 0.0000 -26.5604 -8.9417 -21.6395 2.5912 10.0018 28.9827 0.8299 -5.4372 -16.2437 5.2777 -13.6898 -42.0089 0.0000 0.0000 0.0000 6.5142 20.1268 -23.1443 -13.8264 -19.0605 71.6736 -40.4225 26.5841 -163.9366 -0.0167 0.8352 -2.2954 -7.2657 1.2477 -4.4063 3.7310 2.0550 2.5503 8.2244 0.7463 4.7704 -3.3857 -4.1199 -6.3463 0.6265 -2.9551 28.2578 0.6543 -0.7624 10.0867 -0.0000 -0.0000 0.0000 23.4457 14.8831 -34.174 23.3152 -34.4317 7.3157 33.9906 -7.932 18.2543 0.0 0.0 0.0 -7.1250 0.0 0.0 3.7951 8.3257 3.2128 -0.0000 -0.0000 0.0000 -10.6726 12.2691 -6.1854 -18.7626 -29.1227 -4.9148 -24.2317 24.2143 44.2577 0.0 0.0 0.0 7.1250 0.0 -0.0 26.7707 75.5534 -19.5442
8.3596 16.2796 5.5759 176.8610 6.2208 -169.4120 0.0000 0.0000 0.0000 -27.9815 -8.3982 -19.7518 2.4744 9.7911 28.3030 0.7876 -6.6535 -15.8426 5.1405 -13.5403 -41.4262 0.0000 0.0000 0.0000 4.3159 21.2119 -27.5455 -15.1220 -19.4197 75.6040 -40.8971 24.9148 -169.0720 -0.0831 1.8597 -5.1180 -8.0045 0.7749 -3.4602 3.7508 1.4325 3.1626 8.6183 0.3841 4.9945 -2.7685 -3.8905 -6.6503 -0.6745 -2.3454 28.5760 0.1512 -0.5553 10.2209 -0.0000 -0.0000 0.0000 24.1438 12.9248 -33.392 23.8293 -34.9832 7.6085 34.0275 -8.2952 17.5936 0.0 0.0 0.0 -7.1250 0.0 0.0 3.9192 9.082 3.2592 -0.0000 -0.0000 0.0000 -10.0642 13.6649 -9.6733 -18.0870 -28.2684 -4.5904 -24.2227 25.5206 45.4849 0.0 0.0 0.0 7.1250 0.0 -0.0 30.0718 76.5201 -22.6285
8.3291 16.2728 5.5211 175.8150 6.3793 -170.8600 0.0000 0.0000 0.0000 -29.5057 -8.0984 -17.6792 2.3947 9.6438 27.8308 0.7938 -7.3172 -15.9492 4.9430 -13.3193 -40.5757 0.0000 0.0000 0.0000 2.0061 21.6802 -32.0524 -17.7359 -19.8766 83.3671 -51.7224 50.8916 139.3778 -0.0001 -0.0782 0.2149 -8.6826 0.3257 -2.2161 3.7092 0.8231 3.7976 8.9139 0.0404 5.0912 -2.4848 -3.5299 -6.5756 -1.4500 -1.6532 28.6416 -0.0978 -0.2904 10.2119 0.0000 0.0000 0.0000 24.6621 10.7335 -32.3305 24.0752 -35.2437 7.7499 34.3949 -8.2913 17.6752 0.0 0.0 0.0 -7.1250 0.0 0.0 4.1424 8.9088 3.4602 0.0000 0.0000 0.0000 -9.4622 15.0269 -12.4956 -17.4094 -27.3944 -4.274 -24.0922 26.4714 45.7756 0.0 0.0 0.0 7.1250 0.0 -0.0 31.0863 76.6901 -23.5252
8.2952 16.2741 5.4797 175.3030 6.7173 -172.1970 0.0000 0.0000 0.0000 -30.4537 -7.8113 -15.8780 2.3357 9.5329 27.4770 0.8321 -7.3944 -16.3252 4.5358 -12.8411 -38.7767 0.0000 0.0000 0.0000 0.6569 21.8650 -36.0745 -19.8160 -19.9992 89.4621 -3.4989 46.1747 68.6180 -0.0554 1.5192 -4.1786 -8.8451 0.0008 -0.9181 3.7740 0.3594 4.4080 9.0453 -0.2005 5.1096 -2.3885 -3.1214 -6.2747 -1.9000 -0.9764 28.5009 -0.2008 -0.0188 10.0957 0.0000 -0.0000 0.0000 25.1144 8.1926 -31.4759 24.1651 -35.3384 7.8018 35.1202 -7.88 17.9225 0.0 0.0 0.0 -7.1250 0.0 0.0 4.5670 8.4614 3.8579 0.0000 -0.0000 0.0000 -8.7896 16.3141 -14.8457 -16.7655 -26.5475 -3.9819 -23.6674 26.9884 45.9673 0.0 0.0 0.0 7.1250 0.0 -0.0 32.1870 76.6655 -24.3742
